<?xml version="1.0" standalone="no"?>
<!DOCTYPE svg PUBLIC "-//W3C//DTD SVG 20010904//EN"
 "http://www.w3.org/TR/2001/REC-SVG-20010904/DTD/svg10.dtd">
<svg version="1.0" xmlns="http://www.w3.org/2000/svg"
 width="500.000000pt" height="500.000000pt" viewBox="0 0 500.000000 500.000000"
 preserveAspectRatio="xMidYMid meet">
<metadata>
Created by potrace 1.14, written by Peter Selinger 2001-2017
</metadata>
<g transform="translate(0.000000,500.000000) scale(0.100000,-0.100000)"
fill="#000000" stroke="none">
<path d="M1523 4147 l-922 -532 -1 -1075 0 -1075 931 -537 930 -538 872 504
c480 277 898 518 930 536 l57 32 0 1076 0 1077 -923 533 c-508 292 -930 532
-938 532 -8 -1 -429 -240 -936 -533z m1302 -468 l63 -31 77 17 c95 21 150 16
223 -22 72 -36 102 -79 102 -145 0 -41 -5 -54 -28 -78 -36 -36 -90 -44 -202
-32 -49 5 -95 5 -109 0 l-24 -8 7 -218 c8 -236 -5 -580 -30 -807 -62 -569
-209 -907 -442 -1022 -75 -38 -77 -38 -197 -38 l-120 0 -98 49 c-78 39 -113
64 -175 125 -133 132 -243 317 -278 467 -41 179 0 399 91 484 21 19 36 25 70
23 80 -3 135 -48 182 -148 28 -59 28 -63 29 -255 1 -191 1 -196 28 -248 34
-68 96 -136 155 -170 94 -55 216 -27 290 67 155 195 197 630 145 1478 l-7 101
-28 -10 c-15 -5 -101 -46 -191 -91 -181 -90 -220 -98 -276 -58 -72 51 -103
160 -63 224 42 69 126 108 408 193 157 47 163 49 173 79 18 55 82 103 139 104
13 1 52 -13 86 -30z"/>
</g>
</svg>
